<svg width="1024" height="1024" version="1.1" xmlns="http://www.w3.org/2000/svg" desc="Created with imagetracer.js version 1.2.6" ><path fill="rgb(5,3,2)" stroke="rgb(5,3,2)" stroke-width="1" opacity="0.9607843137254902" d="M 503.5 113 L 525.5 114 L 533.5 117 L 536 119.5 Q 539.8 122.7 538 131.5 L 534 140.5 L 535.5 141 L 544.5 137 L 552.5 137 L 559 141.5 L 561 145.5 Q 559.5 151 562 152.5 L 562 171.5 L 560 182.5 L 555.5 189 Q 552.2 192.2 544.5 191 L 536 188 L 538 197 L 547 202.5 Q 551 206 550 214.5 Q 547.7 215.8 550.5 217 L 568.5 221 L 593.5 230 Q 606.4 235.1 615 244.5 Q 617.6 247.4 617 253.5 L 595 304.5 L 582 341.5 L 579 354.5 L 588 361.5 L 589 371.5 L 585.5 377 L 579 381.5 Q 577.8 385.3 581.5 384 L 593 390.5 L 596 396.5 L 596 400.5 L 595 404.5 Q 603.9 408.1 609 415.5 L 612 421.5 L 613 430.5 L 609 442.5 L 600.5 451 Q 591.8 456.5 578 456 L 575 473.5 L 575 487.5 L 574 488.5 L 574 532.5 L 575 533.5 L 575 544.5 L 576 545.5 L 576 554.5 L 577 555.5 L 579 576.5 L 589 621.5 L 606 672.5 L 614.5 689 Q 622.9 692.1 628 698.5 Q 632.2 702.3 631 711.5 L 627 721.5 L 627 728.5 L 635 744.5 L 649.5 760 L 660 769.5 L 669 783.5 Q 672.3 790.7 671 802.5 Q 668 816.5 658.5 824 Q 655.9 823.3 657 826 Q 663.9 827.9 668 833.5 L 671 840.5 L 671 863.5 L 666.5 871 Q 657.7 876.7 645.5 879 L 622.5 882 L 621.5 883 L 605.5 884 L 604.5 885 L 578.5 886 L 577.5 887 L 553.5 887 L 552.5 888 L 470.5 888 L 469.5 887 L 447.5 887 L 446.5 886 L 419.5 885 L 418.5 884 L 409.5 884 L 408.5 883 L 381.5 880 L 361.5 874 L 355 868.5 L 352 861.5 L 352 841.5 Q 353.5 833 359.5 829 L 366 826 L 355 809.5 L 353 801.5 L 353 792.5 L 356 781.5 L 361 773.5 L 387 746.5 L 392 739.5 Q 397.3 733.3 397 721.5 L 393 710.5 L 393 705.5 Q 394.1 698.1 399.5 695 Q 407.5 692.5 412 686.5 Q 430.7 646.2 441 597.5 L 441 592.5 L 447 561.5 L 448 545.5 L 449 544.5 L 450 491.5 L 449 490.5 L 449 479.5 L 447 470.5 L 447 462.5 L 444.5 456 Q 423.8 456.7 416 444.5 Q 410.7 438.3 411 426.5 L 414 416.5 L 421.5 409 L 429 404.5 L 428 397.5 L 432 389 L 445 383.5 L 443.5 380 L 437 375.5 L 434 366.5 Q 435.5 360 440.5 357 L 445 354.5 L 441 339.5 L 426 297.5 L 424 295.5 L 416 273.5 L 409 259.5 L 407 253.5 L 407 248.5 L 412.5 241 Q 438.3 223.6 474 217 L 474 207.5 L 477 202 L 485 198 L 487 188 L 478.5 191 L 473.5 191 Q 467.8 189.8 465 185.5 L 462 178.5 L 462 148.5 L 463 143.5 L 466.5 139 Q 470.2 135.7 478.5 137 L 489.5 141 L 489 139.5 L 485 129.5 L 485 124.5 L 487 119 L 494.5 115 L 503.5 113 Z M 500 119 L 492 124 L 492 130 L 498 149 L 499 150 L 476 142 L 472 143 L 469 147 Q 470 151 468 153 L 468 172 L 470 183 L 474 185 L 479 185 L 497 176 L 498 177 Q 492 187 491 202 Q 483 202 480 208 Q 479 215 482 219 L 485 221 L 484 222 L 479 222 L 463 226 L 440 234 L 424 242 L 415 250 L 415 254 L 440 313 L 454 358 L 443 362 L 441 366 L 441 371 L 446 375 L 453 377 L 452 389 Q 441 389 436 396 L 436 403 L 441 409 Q 433 409 428 413 Q 422 417 419 425 Q 418 435 422 440 Q 426 446 435 448 L 453 448 L 454 461 L 455 462 L 455 471 L 456 472 L 457 504 L 458 505 L 457 540 L 456 541 L 455 561 L 454 562 L 453 576 L 447 608 L 439 638 L 430 665 L 418 693 L 407 698 L 400 707 L 405 722 L 404 732 L 399 744 L 386 760 L 382 763 L 365 782 L 361 794 Q 361 806 366 814 Q 371 821 380 826 L 365 834 L 360 842 L 360 861 L 361 864 L 367 868 L 383 872 L 407 874 L 408 875 L 417 875 L 418 876 L 429 876 L 430 877 L 474 878 L 475 879 L 548 879 L 549 878 L 574 878 L 575 877 L 605 876 L 606 875 L 626 874 L 627 873 L 650 870 L 660 867 L 663 864 L 663 840 L 662 838 L 658 833 L 645 826 L 653 820 Q 660 814 663 803 L 663 791 L 660 783 L 656 777 L 627 747 Q 621 739 619 727 L 619 723 L 624 710 L 624 706 L 621 700 L 608 693 L 596 669 L 581 623 L 571 576 L 569 555 L 568 554 L 568 545 L 567 544 L 567 529 L 566 528 L 567 480 L 568 479 L 568 470 L 569 469 L 571 448 L 589 448 L 598 444 Q 603 439 605 431 Q 605 423 602 419 Q 596 410 583 409 L 589 402 L 588 395 Q 583 389 573 389 Q 574 381 572 377 L 580 374 L 583 370 L 583 366 L 581 362 L 570 358 L 584 312 L 609 254 L 608 248 Q 599 239 586 234 L 559 225 L 538 221 L 541 220 L 544 214 L 543 207 Q 540 201 533 202 L 530 189 L 526 179 L 527 175 L 546 185 L 551 185 L 554 182 L 555 178 L 555 148 L 553 143 L 550 142 L 544 143 L 525 150 L 532 130 L 532 124 L 530 121 L 524 119 L 500 119 Z " /><path fill="rgb(5,3,2)" stroke="rgb(5,3,2)" stroke-width="1" opacity="0.9607843137254902" d="M 528.5 373 L 536 373.5 L 528.5 374 L 528.5 373 Z " /><path fill="rgb(5,3,2)" stroke="rgb(5,3,2)" stroke-width="1" opacity="0.9607843137254902" d="M 533.5 405 L 539 405.5 L 533.5 406 L 533.5 405 Z " /><path fill="rgb(5,3,2)" stroke="rgb(5,3,2)" stroke-width="1" opacity="0.9607843137254902" d="M 504.5 445 L 534.5 445 L 535.5 446 L 537.5 446 L 560 446.5 L 533.5 447 L 532.5 446 L 504.5 446 L 504.5 445 Z " /><path fill="rgb(5,3,2)" stroke="rgb(5,3,2)" stroke-width="1" opacity="0.9607843137254902" d="M 564.5 447 L 568 447.5 L 564.5 448 L 564.5 447 Z " /><path fill="rgb(5,3,2)" stroke="rgb(5,3,2)" stroke-width="1" opacity="0.9607843137254902" d="M 625.5 830 L 630 830.5 L 604.5 835 L 581.5 836 L 580.5 837 L 562.5 837 L 561.5 838 L 472.5 838 L 472.5 837 L 551.5 837 L 552.5 836 L 575.5 836 L 576.5 835 L 591.5 835 L 592.5 834 L 611.5 833 L 625.5 830 Z " /><path fill="rgb(5,3,2)" stroke="rgb(5,3,2)" stroke-width="1" opacity="0.9607843137254902" d="M 457.5 836 L 462 836.5 L 457.5 837 L 457.5 836 Z " /><path fill="rgb(0,0,0)" stroke="rgb(0,0,0)" stroke-width="1" opacity="0" d="M 0 0 L 1024 0 L 1024 1024 L 0 1024 L 0 0 Z M 510 112 L 509 113 L 496 114 L 490 117 Q 485 120 484 127 L 488 138 L 488 140 L 477 136 Q 470 135 468 138 Q 460 143 462 159 L 462 161 Q 464 167 461 169 L 462 170 L 462 181 L 465 187 L 472 191 Q 481 192 486 189 L 485 193 L 486 196 L 481 199 L 473 209 Q 472 214 474 216 L 443 225 L 415 239 L 407 248 L 407 256 L 432 315 L 440 338 L 441 345 L 443 348 L 444 355 L 439 358 L 434 365 L 434 372 L 437 377 L 445 383 L 435 387 L 428 396 Q 427 402 429 405 L 421 409 Q 413 414 411 424 Q 409 440 417 447 Q 425 457 445 456 L 448 475 L 449 506 L 450 508 L 450 510 L 449 511 L 449 536 L 448 537 L 446 566 L 438 606 Q 439 610 437 609 L 437 611 Q 428 652 411 687 L 404 692 L 402 692 Q 394 697 392 709 L 396 720 Q 397 728 395 733 Q 390 744 382 752 Q 379 751 380 754 L 376 757 L 372 762 L 369 764 Q 370 766 368 765 L 355 783 L 352 797 L 355 811 Q 358 819 365 824 L 365 826 L 358 830 L 352 839 Q 354 844 351 846 L 352 864 L 355 870 L 361 874 L 375 879 L 377 878 L 380 880 L 397 882 L 398 883 L 415 884 L 416 885 L 419 884 L 426 886 L 440 886 L 441 887 L 460 887 L 461 888 L 512 888 L 513 889 L 514 888 L 578 887 L 579 886 L 593 886 L 594 885 L 605 885 L 615 883 L 623 883 L 647 878 L 652 878 L 667 871 L 671 865 Q 670 859 672 858 Q 674 842 669 835 L 662 827 L 658 826 Q 657 823 660 824 Q 666 819 669 811 L 672 799 L 670 785 Q 665 773 656 765 L 641 751 Q 642 748 640 749 Q 630 740 627 725 L 631 713 L 631 703 L 627 696 L 616 689 L 613 687 L 605 669 L 589 620 L 580 580 L 578 560 L 577 559 L 577 551 L 576 550 L 576 540 L 575 539 L 576 537 L 575 536 L 574 516 L 574 514 L 575 481 L 576 480 L 576 471 L 577 470 L 578 458 L 580 456 L 593 455 L 603 450 Q 610 444 613 434 L 613 424 L 609 415 Q 605 409 598 406 Q 593 404 596 403 Q 597 395 594 392 Q 590 385 582 384 L 580 382 L 584 379 Q 588 376 590 370 Q 591 363 587 361 Q 588 358 585 359 L 585 357 L 579 354 L 594 309 L 618 252 L 614 243 L 608 237 L 595 230 L 574 222 L 549 216 L 551 213 L 549 205 L 541 197 L 538 197 L 536 189 L 538 188 Q 539 191 541 189 L 547 192 L 555 190 L 560 185 L 562 177 L 562 149 L 559 141 L 552 136 L 546 136 L 537 140 L 535 140 L 539 130 L 538 122 L 529 114 L 510 112 Z " /><path fill="rgb(235,213,178)" stroke="rgb(235,213,178)" stroke-width="1" opacity="0.996078431372549" d="M 501.5 119 L 521.5 119 L 528.5 121 L 532 124.5 L 532 128.5 L 525 147.5 L 525 150.5 L 526.5 150 L 541.5 144 L 551.5 143 L 554 145.5 L 555 150.5 L 555 174.5 Q 552.7 175.7 554 180.5 L 551.5 184 L 548.5 185 L 525 175 L 531 193.5 L 532 200.5 L 533.5 202 L 542 205 L 544 211.5 L 542 217.5 L 539.5 220 Q 535.3 217.3 528 217.5 L 534 215.5 Q 529.1 211.9 519.5 213 L 517 214 Q 518.1 216.7 515.5 216 L 514.5 217 L 489 219.5 L 496.5 220 L 497.5 219 L 527.5 219 L 528.5 220 L 545.5 222 L 576.5 231 L 597.5 240 L 608 247.5 L 609 253.5 L 600 271.5 L 583 313.5 L 571 350.5 L 570 358 Q 578 358.9 582 364.5 L 583 367.5 L 578.5 374 L 573.5 376 L 574.5 374 Q 577.1 374.8 576 371.5 L 572.5 369 L 525.5 368 L 527.5 371 L 529 371.5 L 505.5 372 L 504.5 373 L 477.5 373 L 476.5 374 L 462.5 374 L 455.5 376 L 448.5 376 L 442 371.5 L 441 366.5 L 445.5 361 L 454 358 L 449 338.5 L 438 306.5 L 416 255.5 L 415 250.5 L 419.5 245 L 435.5 236 L 453.5 229 L 479.5 222 L 485 222 L 481 216.5 L 480 208.5 L 482.5 205 L 492 200.5 L 492 194.5 L 498 175 L 477.5 185 L 473.5 185 L 469 178.5 L 469 147.5 L 471.5 143 L 478.5 143 L 498.5 151 L 499 149.5 L 492 129.5 L 492 123.5 L 494.5 121 L 501.5 119 Z M 535 177 L 535 178 L 537 178 L 535 177 Z M 481 180 L 476 182 L 476 183 Q 481 184 483 181 L 481 180 Z M 530 355 L 530 356 L 544 356 L 530 355 Z " /><path fill="rgb(235,213,178)" stroke="rgb(235,213,178)" stroke-width="1" opacity="0.996078431372549" d="M 541.5 371 L 545 371.5 L 541.5 372 L 541.5 371 Z " /><path fill="rgb(235,213,178)" stroke="rgb(235,213,178)" stroke-width="1" opacity="0.996078431372549" d="M 546.5 371 L 554.5 371 L 561 372.5 L 549.5 373 L 546.5 372 L 546.5 371 Z " /><path fill="rgb(235,213,178)" stroke="rgb(235,213,178)" stroke-width="1" opacity="0.996078431372549" d="M 469.5 375 L 522.5 375 L 523.5 376 L 534.5 377 L 535.5 376 L 548.5 375 L 549.5 376 L 560.5 376 L 565.5 379 L 572 378 L 572 389 L 576.5 389 L 587 393 L 589 399.5 L 584.5 407 L 582 408.5 Q 595.7 409.8 602 418.5 Q 605.4 423.6 604 433.5 Q 601.4 440.9 595.5 445 L 586.5 448 L 578.5 448 L 578.5 447 L 589 445.5 L 568.5 445 L 558.5 443 L 529.5 443 L 528.5 444 L 490.5 444 L 489.5 445 L 452.5 446 L 447.5 445 L 445 446.5 L 447 447.5 L 436.5 448 Q 427.5 446.5 423 440.5 L 419 431.5 L 419 425.5 Q 420.8 417.9 426.5 414 Q 432.1 409.4 441 409 L 436 401.5 L 436 396.5 L 438.5 393 L 453 387.5 L 453 378.5 L 454.5 377 L 461.5 377 L 469.5 375 Z M 564 387 L 564 388 L 568 388 L 564 387 Z M 575 399 L 570 401 L 568 405 L 557 405 L 556 404 L 496 404 L 495 405 L 453 406 L 453 407 L 471 407 L 472 406 L 546 406 L 547 407 L 571 407 L 572 408 L 581 408 L 581 406 L 583 406 L 582 405 L 583 403 L 579 399 L 577 400 L 575 399 Z M 536 433 L 527 435 L 496 436 L 495 437 L 476 437 L 475 438 L 463 438 L 462 439 Q 454 438 455 441 L 470 441 L 471 440 L 570 441 L 572 441 L 574 442 L 589 440 L 591 437 Q 588 432 578 434 L 576 434 L 566 434 L 565 433 L 536 433 Z M 591 444 L 591 445 L 593 445 L 591 444 Z " /><path fill="rgb(235,213,178)" stroke="rgb(235,213,178)" stroke-width="1" opacity="0.996078431372549" d="M 549.5 444 L 553 444.5 L 549.5 445 L 549.5 444 Z " /><path fill="rgb(235,213,178)" stroke="rgb(235,213,178)" stroke-width="1" opacity="0.996078431372549" d="M 474.5 448 L 489.5 449 L 501.5 455 L 506.5 456 L 508.5 458 L 513.5 459 L 535.5 472 L 538.5 472 L 545.5 468 L 550.5 468 L 556.5 473 L 560 472 L 566.5 458 L 567.5 460 L 569.5 452 L 570 457.5 L 568 466.5 L 567 489.5 L 566 490.5 L 566 532.5 L 567 533.5 L 567 546.5 L 568 547.5 L 568 555.5 L 569 556.5 L 572 583.5 L 581 623.5 L 588 647.5 L 606 693 Q 616.2 695 622 702.5 L 624 708.5 L 620 717.5 L 619 728.5 L 626 745.5 L 640.5 762 L 654 774.5 L 661 785.5 L 663 792.5 L 663 800.5 Q 659.9 814.9 649.5 822 L 645.5 824 L 646.5 822 L 650 819.5 L 648 818.5 Q 651.5 817 649 815.5 L 648 813.5 L 648 811.5 Q 649.8 806.3 644.5 808 L 639.5 807 Q 637.8 809.7 631.5 808 L 628.5 810 Q 623.7 808.7 622.5 811 L 600.5 812 L 599.5 813 L 595.5 813 L 589.5 812 L 587.5 813 L 584.5 812 L 582.5 812 L 578.5 813 L 576.5 812 L 573.5 813 L 563.5 813 L 555.5 815 L 553.5 815 L 543.5 817 L 536.5 817 L 530.5 819 L 523.5 819 L 516.5 821 L 510.5 821 L 504.5 823 L 502.5 823 L 498.5 823 L 491 826.5 L 491.5 828 Q 487.1 826.5 488 829.5 L 488.5 831 L 484.5 831 L 481.5 832 L 477.5 832 L 434.5 832 L 433.5 831 L 420.5 831 L 419.5 830 L 409.5 830 L 408.5 829 L 396.5 829 L 382 826 Q 380.8 829 384.5 828 L 402.5 833 L 427.5 835 L 428.5 836 L 455.5 837 L 456.5 838 L 478.5 838 L 479.5 839 L 520 839.5 L 496 840 L 496.5 842 L 569.5 842 L 570.5 841 L 589.5 841 L 590.5 840 L 601.5 840 L 612.5 838 L 634.5 837 L 643.5 835 L 648 832.5 L 641.5 829 L 639.5 830 L 639.5 829 L 646.5 827 L 661 836.5 L 663 840.5 L 663 862.5 L 662 865 L 647.5 870 L 629.5 872 L 628.5 873 L 621.5 873 L 620.5 874 L 582.5 876 L 581.5 877 L 561.5 877 L 561.5 876 L 581.5 876 L 582.5 875 L 595.5 875 L 596.5 874 L 608 873.5 L 592.5 873 L 591.5 874 L 562.5 874 L 561.5 875 L 539.5 875 L 538.5 876 L 536.5 875 L 535.5 876 L 509 876.5 L 557.5 877 L 559.5 876 L 559.5 877 L 557.5 878 L 495.5 879 L 494.5 878 L 454.5 878 L 453.5 877 L 435.5 877 L 434.5 876 L 410.5 875 L 409.5 874 L 401.5 874 L 400.5 873 L 379.5 871 L 367.5 868 L 362 864.5 Q 358 856.5 360 842.5 Q 361.8 835.3 367.5 832 L 380 825.5 Q 380.8 823.3 378.5 824 L 367 814.5 L 362 803.5 L 362 789.5 L 369 776.5 Q 385.4 762.9 398 745.5 L 404 732.5 L 405 720.5 L 401 710.5 L 401 704.5 L 405.5 699 L 416.5 694 L 419 691.5 Q 430.6 666.6 439 638.5 L 450 594.5 L 450 589.5 L 454 570.5 L 454 563.5 L 455 562.5 L 456 543.5 L 457 542.5 L 458 495.5 L 457 494.5 L 457 478.5 L 456 477.5 L 455 458.5 L 453 449.5 L 473.5 449 L 474.5 448 Z M 606 711 L 598 713 L 572 714 L 571 715 L 552 715 L 551 716 L 530 716 Q 530 719 527 718 L 530 722 Q 532 721 531 724 L 534 724 Q 536 723 535 726 Q 537 724 539 727 L 540 726 L 543 728 L 561 730 L 562 731 L 563 730 L 579 729 L 580 728 L 596 727 L 598 727 L 606 729 L 608 729 Q 609 721 615 717 L 616 712 L 606 711 Z M 641 868 L 635 870 L 630 870 L 630 871 L 636 871 L 646 869 L 641 868 Z M 624 871 L 624 872 L 627 872 L 624 871 Z " /><path fill="rgb(235,213,178)" stroke="rgb(235,213,178)" stroke-width="1" opacity="0.996078431372549" d="M 449.5 510 L 450 512.5 L 449 512.5 L 449.5 510 Z " /><path fill="rgb(235,213,178)" stroke="rgb(235,213,178)" stroke-width="1" opacity="0.996078431372549" d="M 435.5 608 Q 439 610 434.5 612 L 432 611.5 L 436 609.5 L 435.5 608 Z " /><path fill="rgb(235,213,178)" stroke="rgb(235,213,178)" stroke-width="1" opacity="0.996078431372549" d="M 420.5 660 L 421.5 662 L 419 661.5 L 420.5 660 Z " /><path fill="rgb(235,213,178)" stroke="rgb(235,213,178)" stroke-width="1" opacity="0.996078431372549" d="M 402.5 691 L 401.5 693 L 402.5 691 Z " /><path fill="rgb(235,213,178)" stroke="rgb(235,213,178)" stroke-width="1" opacity="0.996078431372549" d="M 375.5 757 L 374.5 759 L 375.5 757 Z " /><path fill="rgb(235,213,178)" stroke="rgb(235,213,178)" stroke-width="1" opacity="0.996078431372549" d="M 360.5 771 L 361.5 773 L 360.5 771 Z " /><path fill="rgb(235,213,178)" stroke="rgb(235,213,178)" stroke-width="1" opacity="0.996078431372549" d="M 626.5 832 L 630 832.5 L 620.5 834 L 620.5 833 Q 625.2 834.3 626.5 832 Z " /><path fill="rgb(235,213,178)" stroke="rgb(235,213,178)" stroke-width="1" opacity="0.996078431372549" d="M 613.5 834 L 617 834.5 L 613.5 835 L 613.5 834 Z " /><path fill="rgb(235,213,178)" stroke="rgb(235,213,178)" stroke-width="1" opacity="0.996078431372549" d="M 604.5 835 L 611 835.5 L 604.5 836 L 604.5 835 Z " /><path fill="rgb(235,213,178)" stroke="rgb(235,213,178)" stroke-width="1" opacity="0.996078431372549" d="M 594.5 836 L 603 836.5 L 594.5 837 L 594.5 836 Z " /><path fill="rgb(235,213,178)" stroke="rgb(235,213,178)" stroke-width="1" opacity="0.996078431372549" d="M 582.5 837 L 590 837.5 L 582.5 838 L 582.5 837 Z " /><path fill="rgb(97,74,49)" stroke="rgb(97,74,49)" stroke-width="1" opacity="0.9411764705882353" d="M 509.5 112 L 516 112.5 L 509.5 113 L 509.5 112 Z " /><path fill="rgb(97,74,49)" stroke="rgb(97,74,49)" stroke-width="1" opacity="0.9411764705882353" d="M 499.5 113 L 503 113.5 L 499.5 114 L 499.5 113 Z " /><path fill="rgb(97,74,49)" stroke="rgb(97,74,49)" stroke-width="1" opacity="0.9411764705882353" d="M 520.5 113 L 524 113.5 L 520.5 114 L 520.5 113 Z " /><path fill="rgb(97,74,49)" stroke="rgb(97,74,49)" stroke-width="1" opacity="0.9411764705882353" d="M 526.5 114 L 529 114.5 L 526.5 115 L 526.5 114 Z " /><path fill="rgb(97,74,49)" stroke="rgb(97,74,49)" stroke-width="1" opacity="0.9411764705882353" d="M 489.5 117 L 488.5 119 L 489.5 117 Z " /><path fill="rgb(97,74,49)" stroke="rgb(97,74,49)" stroke-width="1" opacity="0.9411764705882353" d="M 536.5 120 L 537.5 122 L 536.5 120 Z " /><path fill="rgb(97,74,49)" stroke="rgb(97,74,49)" stroke-width="1" opacity="0.9411764705882353" d="M 529.5 121 L 531.5 124 L 529.5 121 Z " /><path fill="rgb(97,74,49)" stroke="rgb(97,74,49)" stroke-width="1" opacity="0.9411764705882353" d="M 538.5 124 L 539 129.5 L 538 129.5 L 538.5 124 Z " /><path fill="rgb(97,74,49)" stroke="rgb(97,74,49)" stroke-width="1" opacity="0.9411764705882353" d="M 472.5 136 L 477 136.5 L 472.5 137 L 472.5 136 Z " /><path fill="rgb(97,74,49)" stroke="rgb(97,74,49)" stroke-width="1" opacity="0.9411764705882353" d="M 545.5 136 L 552 136.5 L 545.5 137 L 545.5 136 Z " /><path fill="rgb(97,74,49)" stroke="rgb(97,74,49)" stroke-width="1" opacity="0.9411764705882353" d="M 553.5 137 L 556 138.5 L 554.5 138 L 553.5 137 Z " /><path fill="rgb(97,74,49)" stroke="rgb(97,74,49)" stroke-width="1" opacity="0.9411764705882353" d="M 488.5 138 L 490 140.5 L 488 141 L 488.5 138 Z " /><path fill="rgb(97,74,49)" stroke="rgb(97,74,49)" stroke-width="1" opacity="0.9411764705882353" d="M 557.5 139 L 558.5 141 L 557.5 139 Z " /><path fill="rgb(97,74,49)" stroke="rgb(97,74,49)" stroke-width="1" opacity="0.9411764705882353" d="M 473.5 142 L 476 142.5 L 473.5 143 L 473.5 142 Z " /><path fill="rgb(97,74,49)" stroke="rgb(97,74,49)" stroke-width="1" opacity="0.9411764705882353" d="M 554.5 147 L 555 149.5 L 554 149.5 L 554.5 147 Z " /><path fill="rgb(97,74,49)" stroke="rgb(97,74,49)" stroke-width="1" opacity="0.9411764705882353" d="M 561.5 148 L 562 151.5 L 561 151.5 L 561.5 148 Z " /><path fill="rgb(97,74,49)" stroke="rgb(97,74,49)" stroke-width="1" opacity="0.9411764705882353" d="M 468.5 152 L 469 171.5 L 468 171.5 L 468.5 152 Z " /><path fill="rgb(97,74,49)" stroke="rgb(97,74,49)" stroke-width="1" opacity="0.9411764705882353" d="M 561.5 172 L 562 176.5 L 561 176.5 L 561.5 172 Z " /><path fill="rgb(97,74,49)" stroke="rgb(97,74,49)" stroke-width="1" opacity="0.9411764705882353" d="M 492.5 175 L 491.5 177 L 488.5 178 L 488.5 177 L 492.5 175 Z " /><path fill="rgb(97,74,49)" stroke="rgb(97,74,49)" stroke-width="1" opacity="0.9411764705882353" d="M 496.5 175 L 498 175.5 L 495.5 177 L 496.5 175 Z " /><path fill="rgb(97,74,49)" stroke="rgb(97,74,49)" stroke-width="1" opacity="0.9411764705882353" d="M 531.5 175 L 545 181.5 L 543.5 182 L 532.5 177 L 531.5 175 Z " /><path fill="rgb(97,74,49)" stroke="rgb(97,74,49)" stroke-width="1" opacity="0.9411764705882353" d="M 554.5 175 L 555 177.5 L 554 177.5 L 554.5 175 Z " /><path fill="rgb(97,74,49)" stroke="rgb(97,74,49)" stroke-width="1" opacity="0.9411764705882353" d="M 485.5 178 L 487 178.5 L 478.5 183 L 475.5 183 L 475.5 182 L 485.5 178 Z " /><path fill="rgb(97,74,49)" stroke="rgb(97,74,49)" stroke-width="1" opacity="0.9411764705882353" d="M 536.5 180 L 540 181.5 L 538.5 182 L 536.5 180 Z " /><path fill="rgb(97,74,49)" stroke="rgb(97,74,49)" stroke-width="1" opacity="0.9411764705882353" d="M 470.5 182 L 471.5 184 L 470.5 182 Z " /><path fill="rgb(97,74,49)" stroke="rgb(97,74,49)" stroke-width="1" opacity="0.9411764705882353" d="M 463.5 183 L 464.5 185 L 463.5 183 Z " /><path fill="rgb(97,74,49)" stroke="rgb(97,74,49)" stroke-width="1" opacity="0.9411764705882353" d="M 559.5 183 L 560 184.5 L 558 185.5 L 559.5 183 Z " /><path fill="rgb(97,74,49)" stroke="rgb(97,74,49)" stroke-width="1" opacity="0.9411764705882353" d="M 545.5 184 L 548 184.5 L 545.5 185 L 545.5 184 Z " /><path fill="rgb(97,74,49)" stroke="rgb(97,74,49)" stroke-width="1" opacity="0.9411764705882353" d="M 465.5 186 L 467.5 189 L 465.5 186 Z " /><path fill="rgb(97,74,49)" stroke="rgb(97,74,49)" stroke-width="1" opacity="0.9411764705882353" d="M 485.5 188 Q 487.8 187.3 487 189.5 L 485.5 188 Z " /><path fill="rgb(97,74,49)" stroke="rgb(97,74,49)" stroke-width="1" opacity="0.9411764705882353" d="M 546.5 191 L 549 191.5 L 546.5 192 L 546.5 191 Z " /><path fill="rgb(97,74,49)" stroke="rgb(97,74,49)" stroke-width="1" opacity="0.9411764705882353" d="M 485.5 192 L 486 194.5 L 485 194.5 L 485.5 192 Z " /><path fill="rgb(97,74,49)" stroke="rgb(97,74,49)" stroke-width="1" opacity="0.9411764705882353" d="M 482.5 198 L 481.5 200 L 478.5 202 L 480.5 199 L 482.5 198 Z " /><path fill="rgb(97,74,49)" stroke="rgb(97,74,49)" stroke-width="1" opacity="0.9411764705882353" d="M 491.5 198 L 492 200.5 L 491 200.5 L 491.5 198 Z " /><path fill="rgb(97,74,49)" stroke="rgb(97,74,49)" stroke-width="1" opacity="0.9411764705882353" d="M 476.5 203 L 475.5 205 L 476.5 203 Z " /><path fill="rgb(97,74,49)" stroke="rgb(97,74,49)" stroke-width="1" opacity="0.9411764705882353" d="M 547.5 203 L 548.5 205 L 547.5 203 Z " /><path fill="rgb(97,74,49)" stroke="rgb(97,74,49)" stroke-width="1" opacity="0.9411764705882353" d="M 473.5 208 L 474 214.5 L 473 214.5 L 473.5 208 Z " /><path fill="rgb(97,74,49)" stroke="rgb(97,74,49)" stroke-width="1" opacity="0.9411764705882353" d="M 519.5 213 Q 529.1 211.9 534 215.5 L 528 217.5 L 539 219.5 L 535.5 221 L 527.5 219 L 497.5 219 Q 495.7 221.7 489.5 220 L 489.5 219 L 506.5 218 L 517 216 Q 515.9 213.3 518.5 214 L 519.5 213 Z " /><path fill="rgb(97,74,49)" stroke="rgb(97,74,49)" stroke-width="1" opacity="0.9411764705882353" d="M 482.5 218 L 483.5 220 L 482.5 218 Z " /><path fill="rgb(97,74,49)" stroke="rgb(97,74,49)" stroke-width="1" opacity="0.9411764705882353" d="M 428.5 231 L 430 231.5 L 427.5 233 L 428.5 231 Z " /><path fill="rgb(97,74,49)" stroke="rgb(97,74,49)" stroke-width="1" opacity="0.9411764705882353" d="M 424.5 233 L 426 233.5 L 421.5 236 L 422.5 234 L 424.5 233 Z " /><path fill="rgb(97,74,49)" stroke="rgb(97,74,49)" stroke-width="1" opacity="0.9411764705882353" d="M 417.5 237 L 416.5 239 L 417.5 237 Z " /><path fill="rgb(97,74,49)" stroke="rgb(97,74,49)" stroke-width="1" opacity="0.9411764705882353" d="M 607.5 237 L 609.5 240 L 607.5 237 Z " /><path fill="rgb(97,74,49)" stroke="rgb(97,74,49)" stroke-width="1" opacity="0.9411764705882353" d="M 414.5 239 L 413.5 241 L 414.5 239 Z " /><path fill="rgb(97,74,49)" stroke="rgb(97,74,49)" stroke-width="1" opacity="0.9411764705882353" d="M 611.5 240 L 613.5 243 L 611.5 240 Z " /><path fill="rgb(97,74,49)" stroke="rgb(97,74,49)" stroke-width="1" opacity="0.9411764705882353" d="M 409.5 244 L 408.5 246 L 409.5 244 Z " /><path fill="rgb(97,74,49)" stroke="rgb(97,74,49)" stroke-width="1" opacity="0.9411764705882353" d="M 604.5 244 L 605.5 246 L 604.5 244 Z " /><path fill="rgb(97,74,49)" stroke="rgb(97,74,49)" stroke-width="1" opacity="0.9411764705882353" d="M 414.5 272 L 416 274.5 L 415 274.5 L 414.5 272 Z " /><path fill="rgb(97,74,49)" stroke="rgb(97,74,49)" stroke-width="1" opacity="0.9411764705882353" d="M 444.5 352 L 445 354.5 L 443 355.5 L 444.5 352 Z " /><path fill="rgb(97,74,49)" stroke="rgb(97,74,49)" stroke-width="1" opacity="0.9411764705882353" d="M 579.5 354 L 580.5 356 L 579.5 354 Z " /><path fill="rgb(97,74,49)" stroke="rgb(97,74,49)" stroke-width="1" opacity="0.9411764705882353" d="M 529.5 355 L 544 355.5 L 529.5 356 L 529.5 355 Z " /><path fill="rgb(97,74,49)" stroke="rgb(97,74,49)" stroke-width="1" opacity="0.9411764705882353" d="M 438.5 358 L 437.5 360 L 438.5 358 Z " /><path fill="rgb(97,74,49)" stroke="rgb(97,74,49)" stroke-width="1" opacity="0.9411764705882353" d="M 589.5 365 L 590 369.5 L 589 369.5 L 589.5 365 Z " /><path fill="rgb(97,74,49)" stroke="rgb(97,74,49)" stroke-width="1" opacity="0.9411764705882353" d="M 434.5 368 L 436 372.5 L 434 371.5 L 434.5 368 Z " /><path fill="rgb(97,74,49)" stroke="rgb(97,74,49)" stroke-width="1" opacity="0.9411764705882353" d="M 525.5 368 L 572.5 369 L 576 371.5 Q 577.1 374.8 574.5 374 L 573.5 377 L 564.5 379 L 560.5 376 L 545.5 375 L 544.5 376 L 529.5 377 L 522.5 375 L 469.5 375 L 453.5 378 L 451 376.5 L 462.5 374 L 476.5 374 L 477.5 373 L 504.5 373 L 505.5 372 L 529 371.5 L 525.5 368 Z M 542 371 L 542 372 L 545 372 L 542 371 Z M 547 371 L 547 372 L 550 373 L 561 373 L 555 371 L 547 371 Z M 529 373 L 529 374 L 536 374 L 529 373 Z " /><path fill="rgb(97,74,49)" stroke="rgb(97,74,49)" stroke-width="1" opacity="0.9411764705882353" d="M 581.5 371 L 579.5 374 L 581.5 371 Z " /><path fill="rgb(97,74,49)" stroke="rgb(97,74,49)" stroke-width="1" opacity="0.9411764705882353" d="M 437.5 376 L 438.5 378 L 437.5 376 Z " /><path fill="rgb(97,74,49)" stroke="rgb(97,74,49)" stroke-width="1" opacity="0.9411764705882353" d="M 584.5 377 L 583.5 379 L 584.5 377 Z " /><path fill="rgb(97,74,49)" stroke="rgb(97,74,49)" stroke-width="1" opacity="0.9411764705882353" d="M 572.5 379 L 573 388.5 L 572 388.5 L 572.5 379 Z " /><path fill="rgb(97,74,49)" stroke="rgb(97,74,49)" stroke-width="1" opacity="0.9411764705882353" d="M 581.5 379 L 580 381.5 L 581 383.5 L 579 384 Q 578.3 380.2 581.5 379 Z " /><path fill="rgb(97,74,49)" stroke="rgb(97,74,49)" stroke-width="1" opacity="0.9411764705882353" d="M 443.5 380 L 444.5 382 L 443.5 380 Z " /><path fill="rgb(97,74,49)" stroke="rgb(97,74,49)" stroke-width="1" opacity="0.9411764705882353" d="M 444.5 383 L 443.5 385 L 439.5 386 L 439.5 385 L 444.5 383 Z " /><path fill="rgb(97,74,49)" stroke="rgb(97,74,49)" stroke-width="1" opacity="0.9411764705882353" d="M 452.5 385 L 453 387.5 L 452 387.5 L 452.5 385 Z " /><path fill="rgb(97,74,49)" stroke="rgb(97,74,49)" stroke-width="1" opacity="0.9411764705882353" d="M 436.5 386 L 438 386.5 L 433.5 389 L 434.5 387 L 436.5 386 Z " /><path fill="rgb(97,74,49)" stroke="rgb(97,74,49)" stroke-width="1" opacity="0.9411764705882353" d="M 563.5 387 L 568 387.5 L 563.5 388 L 563.5 387 Z " /><path fill="rgb(97,74,49)" stroke="rgb(97,74,49)" stroke-width="1" opacity="0.9411764705882353" d="M 431.5 390 L 430.5 392 L 431.5 390 Z " /><path fill="rgb(97,74,49)" stroke="rgb(97,74,49)" stroke-width="1" opacity="0.9411764705882353" d="M 574.5 399 L 576.5 400 L 578.5 399 L 583 402.5 L 584 404.5 L 581 406 L 580.5 408 L 571.5 408 L 570.5 407 L 546.5 407 L 544.5 405 L 541.5 406 L 533.5 405 L 532.5 406 L 471.5 406 L 470.5 407 L 452.5 407 L 452.5 406 L 494.5 405 L 495.5 404 L 555.5 404 L 556.5 405 L 568 405 L 569.5 401 L 574.5 399 Z " /><path fill="rgb(97,74,49)" stroke="rgb(97,74,49)" stroke-width="1" opacity="0.9411764705882353" d="M 595.5 404 L 596.5 406 L 595.5 404 Z " /><path fill="rgb(97,74,49)" stroke="rgb(97,74,49)" stroke-width="1" opacity="0.9411764705882353" d="M 423.5 407 L 422.5 409 L 423.5 407 Z " /><path fill="rgb(97,74,49)" stroke="rgb(97,74,49)" stroke-width="1" opacity="0.9411764705882353" d="M 583.5 407 L 582.5 409 L 583.5 407 Z " /><path fill="rgb(97,74,49)" stroke="rgb(97,74,49)" stroke-width="1" opacity="0.9411764705882353" d="M 420.5 409 L 415.5 415 L 420.5 409 Z " /><path fill="rgb(97,74,49)" stroke="rgb(97,74,49)" stroke-width="1" opacity="0.9411764705882353" d="M 603.5 409 L 608.5 415 L 603.5 409 Z " /><path fill="rgb(97,74,49)" stroke="rgb(97,74,49)" stroke-width="1" opacity="0.9411764705882353" d="M 411.5 423 L 412 425.5 L 411 425.5 L 411.5 423 Z " /><path fill="rgb(97,74,49)" stroke="rgb(97,74,49)" stroke-width="1" opacity="0.9411764705882353" d="M 612.5 423 L 613 426.5 L 612 426.5 L 612.5 423 Z " /><path fill="rgb(97,74,49)" stroke="rgb(97,74,49)" stroke-width="1" opacity="0.9411764705882353" d="M 604.5 426 L 605 430.5 L 604 430.5 L 604.5 426 Z " /><path fill="rgb(97,74,49)" stroke="rgb(97,74,49)" stroke-width="1" opacity="0.9411764705882353" d="M 612.5 431 L 613 433.5 L 612 433.5 L 612.5 431 Z " /><path fill="rgb(97,74,49)" stroke="rgb(97,74,49)" stroke-width="1" opacity="0.9411764705882353" d="M 411.5 433 L 412 435.5 L 411 435.5 L 411.5 433 Z " /><path fill="rgb(97,74,49)" stroke="rgb(97,74,49)" stroke-width="1" opacity="0.9411764705882353" d="M 535.5 433 L 564.5 433 L 565.5 434 L 575.5 434 L 577.5 434 Q 587.6 431.9 591 436.5 L 588.5 440 L 573.5 442 L 571.5 441 L 569.5 441 L 470.5 440 L 469.5 441 L 455 441 Q 453.9 437.5 461.5 439 L 462.5 438 L 474.5 438 L 475.5 437 L 494.5 437 L 495.5 436 L 526.5 435 L 535.5 433 Z " /><path fill="rgb(97,74,49)" stroke="rgb(97,74,49)" stroke-width="1" opacity="0.9411764705882353" d="M 599.5 441 L 597.5 444 L 599.5 441 Z " /><path fill="rgb(97,74,49)" stroke="rgb(97,74,49)" stroke-width="1" opacity="0.9411764705882353" d="M 414.5 442 L 415.5 444 L 414.5 442 Z " /><path fill="rgb(97,74,49)" stroke="rgb(97,74,49)" stroke-width="1" opacity="0.9411764705882353" d="M 529.5 443 L 558.5 443 L 568.5 445 L 589 445.5 L 571 448 L 570.5 454 L 569.5 452 L 567.5 460 L 566.5 458 L 560 472 L 556.5 473 Q 554.6 466.9 545.5 468 L 538.5 472 L 535.5 472 L 525.5 465 L 489.5 449 L 474.5 448 L 473.5 449 L 453.5 449 L 445 446.5 Q 446.8 444.3 451.5 445 L 452.5 446 L 466.5 446 L 467.5 445 L 528.5 444 L 529.5 443 Z M 550 444 L 550 445 L 553 445 L 550 444 Z M 505 445 L 505 446 L 533 446 L 534 447 L 560 447 L 538 446 L 536 446 L 535 445 L 505 445 Z M 565 447 L 565 448 L 568 448 L 565 447 Z " /><path fill="rgb(97,74,49)" stroke="rgb(97,74,49)" stroke-width="1" opacity="0.9411764705882353" d="M 593.5 443 L 592.5 445 L 590 444.5 L 593.5 443 Z " /><path fill="rgb(97,74,49)" stroke="rgb(97,74,49)" stroke-width="1" opacity="0.9411764705882353" d="M 607.5 444 L 602.5 450 L 607.5 444 Z " /><path fill="rgb(97,74,49)" stroke="rgb(97,74,49)" stroke-width="1" opacity="0.9411764705882353" d="M 417.5 446 L 419.5 449 L 417.5 446 Z " /><path fill="rgb(97,74,49)" stroke="rgb(97,74,49)" stroke-width="1" opacity="0.9411764705882353" d="M 453.5 450 L 454 452.5 L 453 452.5 L 453.5 450 Z " /><path fill="rgb(97,74,49)" stroke="rgb(97,74,49)" stroke-width="1" opacity="0.9411764705882353" d="M 586.5 455 L 589 455.5 L 586.5 456 L 586.5 455 Z " /><path fill="rgb(97,74,49)" stroke="rgb(97,74,49)" stroke-width="1" opacity="0.9411764705882353" d="M 454.5 458 L 455 460.5 L 454 460.5 L 454.5 458 Z " /><path fill="rgb(97,74,49)" stroke="rgb(97,74,49)" stroke-width="1" opacity="0.9411764705882353" d="M 569.5 458 L 570 460.5 L 569 460.5 L 569.5 458 Z " /><path fill="rgb(97,74,49)" stroke="rgb(97,74,49)" stroke-width="1" opacity="0.9411764705882353" d="M 577.5 459 L 578 461.5 L 577 461.5 L 577.5 459 Z " /><path fill="rgb(97,74,49)" stroke="rgb(97,74,49)" stroke-width="1" opacity="0.9411764705882353" d="M 446.5 462 L 447 465.5 L 446 465.5 L 446.5 462 Z " /><path fill="rgb(97,74,49)" stroke="rgb(97,74,49)" stroke-width="1" opacity="0.9411764705882353" d="M 568.5 466 L 569 468.5 L 568 468.5 L 568.5 466 Z " /><path fill="rgb(97,74,49)" stroke="rgb(97,74,49)" stroke-width="1" opacity="0.9411764705882353" d="M 576.5 467 L 577 469.5 L 576 469.5 L 576.5 467 Z " /><path fill="rgb(97,74,49)" stroke="rgb(97,74,49)" stroke-width="1" opacity="0.9411764705882353" d="M 455.5 468 L 456 470.5 L 455 470.5 L 455.5 468 Z " /><path fill="rgb(97,74,49)" stroke="rgb(97,74,49)" stroke-width="1" opacity="0.9411764705882353" d="M 447.5 471 L 448 473.5 L 447 473.5 L 447.5 471 Z " /><path fill="rgb(97,74,49)" stroke="rgb(97,74,49)" stroke-width="1" opacity="0.9411764705882353" d="M 575.5 473 L 576 479.5 L 575 479.5 L 575.5 473 Z " /><path fill="rgb(97,74,49)" stroke="rgb(97,74,49)" stroke-width="1" opacity="0.9411764705882353" d="M 567.5 475 L 568 478.5 L 567 478.5 L 567.5 475 Z " /><path fill="rgb(97,74,49)" stroke="rgb(97,74,49)" stroke-width="1" opacity="0.9411764705882353" d="M 456.5 478 L 457 481.5 L 456 481.5 L 456.5 478 Z " /><path fill="rgb(97,74,49)" stroke="rgb(97,74,49)" stroke-width="1" opacity="0.9411764705882353" d="M 448.5 479 L 449 484.5 L 448 484.5 L 448.5 479 Z " /><path fill="rgb(97,74,49)" stroke="rgb(97,74,49)" stroke-width="1" opacity="0.9411764705882353" d="M 574.5 488 L 575 497.5 L 574 497.5 L 574.5 488 Z " /><path fill="rgb(97,74,49)" stroke="rgb(97,74,49)" stroke-width="1" opacity="0.9411764705882353" d="M 566.5 490 L 567 495.5 L 566 495.5 L 566.5 490 Z " /><path fill="rgb(97,74,49)" stroke="rgb(97,74,49)" stroke-width="1" opacity="0.9411764705882353" d="M 449.5 491 L 450 505.5 L 449 505.5 L 449.5 491 Z " /><path fill="rgb(97,74,49)" stroke="rgb(97,74,49)" stroke-width="1" opacity="0.9411764705882353" d="M 457.5 495 L 458 503.5 L 457 503.5 L 457.5 495 Z " /><path fill="rgb(97,74,49)" stroke="rgb(97,74,49)" stroke-width="1" opacity="0.9411764705882353" d="M 449.5 513 L 450 527.5 L 449 527.5 L 449.5 513 Z " /><path fill="rgb(97,74,49)" stroke="rgb(97,74,49)" stroke-width="1" opacity="0.9411764705882353" d="M 457.5 518 L 458 528.5 L 457 528.5 L 457.5 518 Z " /><path fill="rgb(97,74,49)" stroke="rgb(97,74,49)" stroke-width="1" opacity="0.9411764705882353" d="M 574.5 523 L 575 532.5 L 574 532.5 L 574.5 523 Z " /><path fill="rgb(97,74,49)" stroke="rgb(97,74,49)" stroke-width="1" opacity="0.9411764705882353" d="M 566.5 528 L 567 532.5 L 566 532.5 L 566.5 528 Z " /><path fill="rgb(97,74,49)" stroke="rgb(97,74,49)" stroke-width="1" opacity="0.9411764705882353" d="M 448.5 536 L 449 544.5 L 448 544.5 L 448.5 536 Z " /><path fill="rgb(97,74,49)" stroke="rgb(97,74,49)" stroke-width="1" opacity="0.9411764705882353" d="M 575.5 539 L 576 544.5 L 575 544.5 L 575.5 539 Z " /><path fill="rgb(97,74,49)" stroke="rgb(97,74,49)" stroke-width="1" opacity="0.9411764705882353" d="M 456.5 540 L 457 542.5 L 456 542.5 L 456.5 540 Z " /><path fill="rgb(97,74,49)" stroke="rgb(97,74,49)" stroke-width="1" opacity="0.9411764705882353" d="M 567.5 544 L 568 546.5 L 567 546.5 L 567.5 544 Z " /><path fill="rgb(97,74,49)" stroke="rgb(97,74,49)" stroke-width="1" opacity="0.9411764705882353" d="M 447.5 548 L 448 552.5 L 447 552.5 L 447.5 548 Z " /><path fill="rgb(97,74,49)" stroke="rgb(97,74,49)" stroke-width="1" opacity="0.9411764705882353" d="M 455.5 551 L 456 553.5 L 455 553.5 L 455.5 551 Z " /><path fill="rgb(97,74,49)" stroke="rgb(97,74,49)" stroke-width="1" opacity="0.9411764705882353" d="M 576.5 551 L 577 554.5 L 576 554.5 L 576.5 551 Z " /><path fill="rgb(97,74,49)" stroke="rgb(97,74,49)" stroke-width="1" opacity="0.9411764705882353" d="M 446.5 558 L 447 561.5 L 446 561.5 L 446.5 558 Z " /><path fill="rgb(97,74,49)" stroke="rgb(97,74,49)" stroke-width="1" opacity="0.9411764705882353" d="M 577.5 559 L 578 562.5 L 577 562.5 L 577.5 559 Z " /><path fill="rgb(97,74,49)" stroke="rgb(97,74,49)" stroke-width="1" opacity="0.9411764705882353" d="M 445.5 566 L 446 568.5 L 445 568.5 L 445.5 566 Z " /><path fill="rgb(97,74,49)" stroke="rgb(97,74,49)" stroke-width="1" opacity="0.9411764705882353" d="M 578.5 566 L 579 570.5 L 578 570.5 L 578.5 566 Z " /><path fill="rgb(97,74,49)" stroke="rgb(97,74,49)" stroke-width="1" opacity="0.9411764705882353" d="M 444.5 572 L 445 574.5 L 444 574.5 L 444.5 572 Z " /><path fill="rgb(97,74,49)" stroke="rgb(97,74,49)" stroke-width="1" opacity="0.9411764705882353" d="M 579.5 574 L 580 576.5 L 579 576.5 L 579.5 574 Z " /><path fill="rgb(97,74,49)" stroke="rgb(97,74,49)" stroke-width="1" opacity="0.9411764705882353" d="M 442.5 584 L 443 586.5 L 442 586.5 L 442.5 584 Z " /><path fill="rgb(97,74,49)" stroke="rgb(97,74,49)" stroke-width="1" opacity="0.9411764705882353" d="M 581.5 585 L 582 587.5 L 581 587.5 L 581.5 585 Z " /><path fill="rgb(97,74,49)" stroke="rgb(97,74,49)" stroke-width="1" opacity="0.9411764705882353" d="M 583.5 594 L 584 596.5 L 583 596.5 L 583.5 594 Z " /><path fill="rgb(97,74,49)" stroke="rgb(97,74,49)" stroke-width="1" opacity="0.9411764705882353" d="M 440.5 595 L 441 597.5 L 440 597.5 L 440.5 595 Z " /><path fill="rgb(97,74,49)" stroke="rgb(97,74,49)" stroke-width="1" opacity="0.9411764705882353" d="M 439.5 600 L 440 602.5 L 439 602.5 L 439.5 600 Z " /><path fill="rgb(97,74,49)" stroke="rgb(97,74,49)" stroke-width="1" opacity="0.9411764705882353" d="M 585.5 603 L 586 605.5 L 585 605.5 L 585.5 603 Z " /><path fill="rgb(97,74,49)" stroke="rgb(97,74,49)" stroke-width="1" opacity="0.9411764705882353" d="M 411.5 685 L 412 686.5 L 410 687.5 L 411.5 685 Z " /><path fill="rgb(97,74,49)" stroke="rgb(97,74,49)" stroke-width="1" opacity="0.9411764705882353" d="M 613.5 687 L 614.5 689 L 613.5 687 Z " /><path fill="rgb(97,74,49)" stroke="rgb(97,74,49)" stroke-width="1" opacity="0.9411764705882353" d="M 408.5 689 L 407.5 691 L 408.5 689 Z " /><path fill="rgb(97,74,49)" stroke="rgb(97,74,49)" stroke-width="1" opacity="0.9411764705882353" d="M 616.5 689 L 620 691.5 L 618.5 691 L 616.5 689 Z " /><path fill="rgb(97,74,49)" stroke="rgb(97,74,49)" stroke-width="1" opacity="0.9411764705882353" d="M 621.5 692 L 622.5 694 L 621.5 692 Z " /><path fill="rgb(97,74,49)" stroke="rgb(97,74,49)" stroke-width="1" opacity="0.9411764705882353" d="M 401.5 693 L 400.5 695 L 401.5 693 Z " /><path fill="rgb(97,74,49)" stroke="rgb(97,74,49)" stroke-width="1" opacity="0.9411764705882353" d="M 628.5 699 L 629.5 701 L 628.5 699 Z " /><path fill="rgb(97,74,49)" stroke="rgb(97,74,49)" stroke-width="1" opacity="0.9411764705882353" d="M 400.5 706 L 401 708.5 L 400 708.5 L 400.5 706 Z " /><path fill="rgb(97,74,49)" stroke="rgb(97,74,49)" stroke-width="1" opacity="0.9411764705882353" d="M 605.5 711 L 616 712 L 615 716.5 Q 609.5 721 607.5 729 L 605.5 729 L 597.5 727 L 595.5 727 L 579.5 728 L 578.5 729 L 562.5 730 L 561.5 731 L 560.5 730 L 542.5 728 L 539.5 726 L 538.5 727 Q 536.8 723.9 535 725.5 Q 535.8 723.3 533.5 724 L 531 723.5 Q 531.8 721.3 529.5 722 L 527 718 Q 530.1 718.8 529.5 716 L 550.5 716 L 551.5 715 L 570.5 715 L 571.5 714 L 597.5 713 L 605.5 711 Z " /><path fill="rgb(97,74,49)" stroke="rgb(97,74,49)" stroke-width="1" opacity="0.9411764705882353" d="M 396.5 721 L 397 723.5 L 396 723.5 L 396.5 721 Z " /><path fill="rgb(97,74,49)" stroke="rgb(97,74,49)" stroke-width="1" opacity="0.9411764705882353" d="M 627.5 721 L 628 723.5 L 627 723.5 L 627.5 721 Z " /><path fill="rgb(97,74,49)" stroke="rgb(97,74,49)" stroke-width="1" opacity="0.9411764705882353" d="M 396.5 725 L 397 727.5 L 396 727.5 L 396.5 725 Z " /><path fill="rgb(97,74,49)" stroke="rgb(97,74,49)" stroke-width="1" opacity="0.9411764705882353" d="M 627.5 725 L 628 728.5 L 627 728.5 L 627.5 725 Z " /><path fill="rgb(97,74,49)" stroke="rgb(97,74,49)" stroke-width="1" opacity="0.9411764705882353" d="M 631.5 738 L 632.5 740 L 631.5 738 Z " /><path fill="rgb(97,74,49)" stroke="rgb(97,74,49)" stroke-width="1" opacity="0.9411764705882353" d="M 391.5 739 L 390.5 741 L 391.5 739 Z " /><path fill="rgb(97,74,49)" stroke="rgb(97,74,49)" stroke-width="1" opacity="0.9411764705882353" d="M 633.5 741 L 634.5 743 L 633.5 741 Z " /><path fill="rgb(97,74,49)" stroke="rgb(97,74,49)" stroke-width="1" opacity="0.9411764705882353" d="M 389.5 742 L 388.5 744 L 389.5 742 Z " /><path fill="rgb(97,74,49)" stroke="rgb(97,74,49)" stroke-width="1" opacity="0.9411764705882353" d="M 635.5 744 L 637.5 747 L 635.5 744 Z " /><path fill="rgb(97,74,49)" stroke="rgb(97,74,49)" stroke-width="1" opacity="0.9411764705882353" d="M 386.5 746 L 383.5 750 L 386.5 746 Z " /><path fill="rgb(97,74,49)" stroke="rgb(97,74,49)" stroke-width="1" opacity="0.9411764705882353" d="M 395.5 748 L 394.5 750 L 395.5 748 Z " /><path fill="rgb(97,74,49)" stroke="rgb(97,74,49)" stroke-width="1" opacity="0.9411764705882353" d="M 640.5 750 L 649.5 760 L 640.5 750 Z " /><path fill="rgb(97,74,49)" stroke="rgb(97,74,49)" stroke-width="1" opacity="0.9411764705882353" d="M 390.5 754 L 386.5 759 L 390.5 754 Z " /><path fill="rgb(97,74,49)" stroke="rgb(97,74,49)" stroke-width="1" opacity="0.9411764705882353" d="M 635.5 756 L 640.5 762 L 635.5 756 Z " /><path fill="rgb(97,74,49)" stroke="rgb(97,74,49)" stroke-width="1" opacity="0.9411764705882353" d="M 373.5 759 L 372.5 761 L 373.5 759 Z " /><path fill="rgb(97,74,49)" stroke="rgb(97,74,49)" stroke-width="1" opacity="0.9411764705882353" d="M 370.5 762 L 369.5 764 L 370.5 762 Z " /><path fill="rgb(97,74,49)" stroke="rgb(97,74,49)" stroke-width="1" opacity="0.9411764705882353" d="M 653.5 762 L 655.5 765 L 653.5 762 Z " /><path fill="rgb(97,74,49)" stroke="rgb(97,74,49)" stroke-width="1" opacity="0.9411764705882353" d="M 381.5 763 L 372.5 773 L 381.5 763 Z " /><path fill="rgb(97,74,49)" stroke="rgb(97,74,49)" stroke-width="1" opacity="0.9411764705882353" d="M 367.5 765 L 366.5 767 L 367.5 765 Z " /><path fill="rgb(97,74,49)" stroke="rgb(97,74,49)" stroke-width="1" opacity="0.9411764705882353" d="M 364.5 769 L 362.5 772 L 364.5 769 Z " /><path fill="rgb(97,74,49)" stroke="rgb(97,74,49)" stroke-width="1" opacity="0.9411764705882353" d="M 660.5 770 L 663.5 774 L 660.5 770 Z " /><path fill="rgb(97,74,49)" stroke="rgb(97,74,49)" stroke-width="1" opacity="0.9411764705882353" d="M 360.5 774 L 359.5 776 L 360.5 774 Z " /><path fill="rgb(97,74,49)" stroke="rgb(97,74,49)" stroke-width="1" opacity="0.9411764705882353" d="M 654.5 775 L 655.5 777 L 654.5 775 Z " /><path fill="rgb(97,74,49)" stroke="rgb(97,74,49)" stroke-width="1" opacity="0.9411764705882353" d="M 664.5 775 L 665.5 777 L 664.5 775 Z " /><path fill="rgb(97,74,49)" stroke="rgb(97,74,49)" stroke-width="1" opacity="0.9411764705882353" d="M 670.5 787 L 671 789.5 L 670 789.5 L 670.5 787 Z " /><path fill="rgb(97,74,49)" stroke="rgb(97,74,49)" stroke-width="1" opacity="0.9411764705882353" d="M 353.5 789 L 354 791.5 L 353 791.5 L 353.5 789 Z " /><path fill="rgb(97,74,49)" stroke="rgb(97,74,49)" stroke-width="1" opacity="0.9411764705882353" d="M 361.5 793 L 362 800.5 L 361 800.5 L 361.5 793 Z " /><path fill="rgb(97,74,49)" stroke="rgb(97,74,49)" stroke-width="1" opacity="0.9411764705882353" d="M 671.5 793 L 672 798.5 L 671 798.5 L 671.5 793 Z " /><path fill="rgb(97,74,49)" stroke="rgb(97,74,49)" stroke-width="1" opacity="0.9411764705882353" d="M 353.5 802 L 354 804.5 L 353 804.5 L 353.5 802 Z " /><path fill="rgb(97,74,49)" stroke="rgb(97,74,49)" stroke-width="1" opacity="0.9411764705882353" d="M 639.5 807 L 648 808 L 649 812.5 L 649 814.5 L 650 816.5 L 648.5 819 L 651.5 817 L 648 821.5 L 648.5 823 L 646.5 822 L 645 823.5 L 645.5 827 L 641 828.5 L 648 832.5 L 646.5 834 L 634.5 837 L 612.5 838 L 611.5 839 L 590.5 840 L 589.5 841 L 570.5 841 L 569.5 842 L 496 842 L 496.5 840 L 519.5 840 L 519.5 839 L 479 838.5 L 561.5 838 L 562.5 837 L 593.5 836 L 594.5 837 L 602.5 837 L 602.5 836 L 595 835.5 L 603.5 835 Q 605 837.5 610.5 836 L 610.5 835 L 605 834.5 L 612 833.5 L 603.5 833 L 602.5 834 L 592.5 834 L 591.5 835 L 552.5 836 L 551.5 837 L 472.5 837 L 471.5 838 L 456.5 838 L 455.5 837 L 441.5 837 L 440.5 836 L 428.5 836 L 427.5 835 L 402.5 833 L 382 828 Q 380.8 825 384.5 826 L 396.5 829 L 408.5 829 L 409.5 830 L 433.5 831 L 434.5 832 L 477.5 832 L 482.5 831 L 485.5 830 Q 486.8 832.3 488 829.5 Q 487.1 826.5 491.5 828 L 491.5 826 L 503.5 822 L 506.5 823 L 510.5 821 L 530.5 819 L 536.5 817 L 543.5 817 L 554.5 814 L 556.5 814 L 573.5 813 L 574.5 812 L 576.5 812 L 579.5 813 L 582.5 812 L 584.5 812 L 588.5 813 L 590.5 812 L 595.5 813 L 600.5 812 L 622.5 811 Q 623.7 808.7 628.5 810 L 631.5 808 Q 637.8 809.7 639.5 807 Z M 626 830 L 626 831 L 630 831 L 626 830 Z M 620 831 L 620 832 L 625 832 L 620 831 Z M 613 832 L 613 833 L 619 833 L 613 832 Z M 627 832 L 627 833 L 630 833 L 627 832 Z M 621 833 L 621 834 L 626 834 L 621 833 Z M 614 834 L 614 835 L 617 835 L 614 834 Z M 458 836 L 458 837 L 462 837 L 458 836 Z M 583 837 L 583 838 L 590 838 L 583 837 Z " /><path fill="rgb(97,74,49)" stroke="rgb(97,74,49)" stroke-width="1" opacity="0.9411764705882353" d="M 658.5 812 L 657.5 814 L 658.5 812 Z " /><path fill="rgb(97,74,49)" stroke="rgb(97,74,49)" stroke-width="1" opacity="0.9411764705882353" d="M 358.5 816 L 360.5 819 L 358.5 816 Z " /><path fill="rgb(97,74,49)" stroke="rgb(97,74,49)" stroke-width="1" opacity="0.9411764705882353" d="M 665.5 816 L 664.5 818 L 665.5 816 Z " /><path fill="rgb(97,74,49)" stroke="rgb(97,74,49)" stroke-width="1" opacity="0.9411764705882353" d="M 654.5 817 L 652.5 820 L 654.5 817 Z " /><path fill="rgb(97,74,49)" stroke="rgb(97,74,49)" stroke-width="1" opacity="0.9411764705882353" d="M 662.5 820 L 659.5 824 L 662.5 820 Z " /><path fill="rgb(97,74,49)" stroke="rgb(97,74,49)" stroke-width="1" opacity="0.9411764705882353" d="M 374.5 821 L 375.5 823 L 374.5 821 Z " /><path fill="rgb(97,74,49)" stroke="rgb(97,74,49)" stroke-width="1" opacity="0.9411764705882353" d="M 361.5 827 L 360.5 829 L 361.5 827 Z " /><path fill="rgb(97,74,49)" stroke="rgb(97,74,49)" stroke-width="1" opacity="0.9411764705882353" d="M 661.5 827 L 662.5 829 L 661.5 827 Z " /><path fill="rgb(97,74,49)" stroke="rgb(97,74,49)" stroke-width="1" opacity="0.9411764705882353" d="M 357.5 830 L 356.5 832 L 357.5 830 Z " /><path fill="rgb(97,74,49)" stroke="rgb(97,74,49)" stroke-width="1" opacity="0.9411764705882353" d="M 364.5 834 L 362.5 837 L 364.5 834 Z " /><path fill="rgb(97,74,49)" stroke="rgb(97,74,49)" stroke-width="1" opacity="0.9411764705882353" d="M 352.5 838 L 353 840.5 L 352 840.5 L 352.5 838 Z " /><path fill="rgb(97,74,49)" stroke="rgb(97,74,49)" stroke-width="1" opacity="0.9411764705882353" d="M 671.5 842 L 672 857.5 L 671 857.5 L 671.5 842 Z " /><path fill="rgb(97,74,49)" stroke="rgb(97,74,49)" stroke-width="1" opacity="0.9411764705882353" d="M 351.5 845 L 352 855.5 L 351 855.5 L 351.5 845 Z " /><path fill="rgb(97,74,49)" stroke="rgb(97,74,49)" stroke-width="1" opacity="0.9411764705882353" d="M 660.5 865 L 659.5 867 L 660.5 865 Z " /><path fill="rgb(97,74,49)" stroke="rgb(97,74,49)" stroke-width="1" opacity="0.9411764705882353" d="M 640.5 868 L 646 868.5 L 642 869.5 L 645 870.5 L 642.5 871 Q 641.3 868.7 636.5 870 L 636.5 871 L 640 871.5 L 636.5 872 L 629 870.5 L 640.5 868 Z " /><path fill="rgb(97,74,49)" stroke="rgb(97,74,49)" stroke-width="1" opacity="0.9411764705882353" d="M 355.5 869 L 356.5 871 L 355.5 869 Z " /><path fill="rgb(97,74,49)" stroke="rgb(97,74,49)" stroke-width="1" opacity="0.9411764705882353" d="M 382.5 871 L 385 871.5 L 382.5 872 L 382.5 871 Z " /><path fill="rgb(97,74,49)" stroke="rgb(97,74,49)" stroke-width="1" opacity="0.9411764705882353" d="M 623.5 871 L 627 871.5 L 623.5 872 L 623.5 871 Z " /><path fill="rgb(97,74,49)" stroke="rgb(97,74,49)" stroke-width="1" opacity="0.9411764705882353" d="M 359.5 872 L 360.5 874 L 359.5 872 Z " /><path fill="rgb(97,74,49)" stroke="rgb(97,74,49)" stroke-width="1" opacity="0.9411764705882353" d="M 390.5 872 L 393 872.5 L 390.5 873 L 390.5 872 Z " /><path fill="rgb(97,74,49)" stroke="rgb(97,74,49)" stroke-width="1" opacity="0.9411764705882353" d="M 629.5 872 L 633 872.5 L 629.5 873 L 629.5 872 Z " /><path fill="rgb(97,74,49)" stroke="rgb(97,74,49)" stroke-width="1" opacity="0.9411764705882353" d="M 398.5 873 L 401 873.5 L 398.5 874 L 398.5 873 Z " /><path fill="rgb(97,74,49)" stroke="rgb(97,74,49)" stroke-width="1" opacity="0.9411764705882353" d="M 592.5 873 L 608 873.5 L 582 875.5 L 592 876.5 L 582.5 877 L 581.5 876 L 561.5 876 L 561.5 877 L 574 877.5 L 558.5 878 L 557.5 877 L 509 876.5 L 535.5 876 L 537.5 875 L 539.5 875 L 591.5 874 L 592.5 873 Z " /><path fill="rgb(97,74,49)" stroke="rgb(97,74,49)" stroke-width="1" opacity="0.9411764705882353" d="M 621.5 873 L 626 873.5 L 621.5 874 L 621.5 873 Z " /><path fill="rgb(97,74,49)" stroke="rgb(97,74,49)" stroke-width="1" opacity="0.9411764705882353" d="M 407.5 874 L 410 874.5 L 407.5 875 L 407.5 874 Z " /><path fill="rgb(97,74,49)" stroke="rgb(97,74,49)" stroke-width="1" opacity="0.9411764705882353" d="M 610.5 874 L 617 874.5 L 610.5 875 L 610.5 874 Z " /><path fill="rgb(97,74,49)" stroke="rgb(97,74,49)" stroke-width="1" opacity="0.9411764705882353" d="M 417.5 875 L 421 875.5 L 417.5 876 L 417.5 875 Z " /><path fill="rgb(97,74,49)" stroke="rgb(97,74,49)" stroke-width="1" opacity="0.9411764705882353" d="M 597.5 875 L 605 875.5 L 597.5 876 L 597.5 875 Z " /><path fill="rgb(97,74,49)" stroke="rgb(97,74,49)" stroke-width="1" opacity="0.9411764705882353" d="M 429.5 876 L 435 876.5 L 429.5 877 L 429.5 876 Z " /><path fill="rgb(97,74,49)" stroke="rgb(97,74,49)" stroke-width="1" opacity="0.9411764705882353" d="M 446.5 877 L 454 877.5 L 446.5 878 L 446.5 877 Z " /><path fill="rgb(97,74,49)" stroke="rgb(97,74,49)" stroke-width="1" opacity="0.9411764705882353" d="M 474.5 878 L 495 878.5 L 474.5 879 L 474.5 878 Z " /><path fill="rgb(97,74,49)" stroke="rgb(97,74,49)" stroke-width="1" opacity="0.9411764705882353" d="M 526.5 878 L 548 878.5 L 526.5 879 L 526.5 878 Z " /><path fill="rgb(97,74,49)" stroke="rgb(97,74,49)" stroke-width="1" opacity="0.9411764705882353" d="M 397.5 882 L 401 882.5 L 397.5 883 L 397.5 882 Z " /><path fill="rgb(97,74,49)" stroke="rgb(97,74,49)" stroke-width="1" opacity="0.9411764705882353" d="M 406.5 883 L 409 883.5 L 406.5 884 L 406.5 883 Z " /><path fill="rgb(97,74,49)" stroke="rgb(97,74,49)" stroke-width="1" opacity="0.9411764705882353" d="M 415.5 884 L 418 884.5 L 415.5 885 L 415.5 884 Z " /><path fill="rgb(97,74,49)" stroke="rgb(97,74,49)" stroke-width="1" opacity="0.9411764705882353" d="M 425.5 885 L 431 885.5 L 425.5 886 L 425.5 885 Z " /><path fill="rgb(97,74,49)" stroke="rgb(97,74,49)" stroke-width="1" opacity="0.9411764705882353" d="M 440.5 886 L 447 886.5 L 440.5 887 L 440.5 886 Z " /><path fill="rgb(97,74,49)" stroke="rgb(97,74,49)" stroke-width="1" opacity="0.9411764705882353" d="M 460.5 887 L 470 887.5 L 460.5 888 L 460.5 887 Z " /></svg>